<?xml version="1.0" encoding="UTF-8" standalone="no"?>
<!DOCTYPE svg PUBLIC "-//W3C//DTD SVG 1.1//EN"
 "http://www.w3.org/Graphics/SVG/1.1/DTD/svg11.dtd">
<!-- Generated by graphviz version 8.1.0 (20230707.0739)
 -->
<!-- Title: packages Pages: 1 -->
<svg width="1221pt" height="260pt"
 viewBox="0.00 0.00 1220.88 260.00" xmlns="http://www.w3.org/2000/svg" xmlns:xlink="http://www.w3.org/1999/xlink">
<g id="graph0" class="graph" transform="scale(1 1) rotate(0) translate(4 256)">
<title>packages</title>
<polygon fill="white" stroke="none" points="-4,4 -4,-256 1216.88,-256 1216.88,4 -4,4"/>
<!-- Application -->
<g id="node1" class="node">
<title>Application</title>
<polygon fill="none" stroke="black" points="655.75,-36 576,-36 576,0 655.75,0 655.75,-36"/>
<text text-anchor="middle" x="615.88" y="-12.95" font-family="Times,serif" font-size="14.00">Application</text>
</g>
<!-- Courses -->
<g id="node3" class="node">
<title>Courses</title>
<polygon fill="dimgrey" stroke="black" points="220.62,-180 161.12,-180 161.12,-144 220.62,-144 220.62,-180"/>
<text text-anchor="start" x="169.12" y="-156.95" font-family="Times,serif" font-size="14.00" fill="WHITE">Courses</text>
</g>
<!-- Application&#45;&gt;Courses -->
<g id="edge1" class="edge">
<title>Application&#45;&gt;Courses</title>
<path fill="none" stroke="black" d="M575.51,-23.31C477.98,-33.86 236.53,-60.96 222.88,-72 204.39,-86.94 196.58,-113.45 193.28,-133.66"/>
<polygon fill="black" stroke="black" points="191.93,-143.56 188.82,-133.04 192.61,-138.6 193.28,-133.65 193.28,-133.65 193.28,-133.65 192.61,-138.6 197.74,-134.26 191.93,-143.56 191.93,-143.56"/>
</g>
<!-- EnrollmentHelper -->
<g id="node5" class="node">
<title>EnrollmentHelper</title>
<polygon fill="none" stroke="black" points="1006,-108 891.75,-108 891.75,-72 1006,-72 1006,-108"/>
<text text-anchor="middle" x="948.88" y="-84.95" font-family="Times,serif" font-size="14.00">EnrollmentHelper</text>
</g>
<!-- Application&#45;&gt;EnrollmentHelper -->
<g id="edge2" class="edge">
<title>Application&#45;&gt;EnrollmentHelper</title>
<path fill="none" stroke="black" d="M655.83,-26.21C706.27,-35.47 795.92,-52.45 881.7,-71.79"/>
<polygon fill="black" stroke="black" points="891.33,-73.97 880.58,-76.15 886.45,-72.87 881.58,-71.76 881.58,-71.76 881.58,-71.76 886.45,-72.87 882.57,-67.37 891.33,-73.97 891.33,-73.97"/>
</g>
<!-- Enrollments -->
<g id="node6" class="node">
<title>Enrollments</title>
<polygon fill="dimgrey" stroke="black" points="751.25,-180 668.5,-180 668.5,-144 751.25,-144 751.25,-180"/>
<text text-anchor="start" x="676.5" y="-156.95" font-family="Times,serif" font-size="14.00" fill="WHITE">Enrollments</text>
</g>
<!-- Application&#45;&gt;Enrollments -->
<g id="edge3" class="edge">
<title>Application&#45;&gt;Enrollments</title>
<path fill="none" stroke="black" d="M644.04,-36.48C656.84,-45.67 671.24,-57.95 680.88,-72 693.67,-90.66 701.12,-115.35 705.26,-133.99"/>
<polygon fill="black" stroke="black" points="707.23,-143.64 700.82,-134.74 706.23,-138.74 705.23,-133.84 705.23,-133.84 705.23,-133.84 706.23,-138.74 709.64,-132.94 707.23,-143.64 707.23,-143.64"/>
</g>
<!-- Grades -->
<g id="node8" class="node">
<title>Grades</title>
<polygon fill="dimgrey" stroke="black" points="442,-180 387.75,-180 387.75,-144 442,-144 442,-180"/>
<text text-anchor="start" x="395.75" y="-156.95" font-family="Times,serif" font-size="14.00" fill="WHITE">Grades</text>
</g>
<!-- Application&#45;&gt;Grades -->
<g id="edge4" class="edge">
<title>Application&#45;&gt;Grades</title>
<path fill="none" stroke="black" d="M591.23,-36.41C555.12,-61.92 487.76,-109.51 447.55,-137.91"/>
<polygon fill="black" stroke="black" points="439.41,-143.67 444.98,-134.22 443.49,-140.78 447.58,-137.9 447.58,-137.9 447.58,-137.9 443.49,-140.78 450.17,-141.57 439.41,-143.67 439.41,-143.67"/>
</g>
<!-- GradingHelper -->
<g id="node9" class="node">
<title>GradingHelper</title>
<polygon fill="none" stroke="black" points="465.38,-108 368.38,-108 368.38,-72 465.38,-72 465.38,-108"/>
<text text-anchor="middle" x="416.88" y="-84.95" font-family="Times,serif" font-size="14.00">GradingHelper</text>
</g>
<!-- Application&#45;&gt;GradingHelper -->
<g id="edge5" class="edge">
<title>Application&#45;&gt;GradingHelper</title>
<path fill="none" stroke="black" d="M575.6,-33.17C546.66,-43.35 507.21,-57.23 474.87,-68.6"/>
<polygon fill="black" stroke="black" points="465.52,-71.89 473.46,-64.32 470.24,-70.23 474.96,-68.57 474.96,-68.57 474.96,-68.57 470.24,-70.23 476.45,-72.81 465.52,-71.89 465.52,-71.89"/>
</g>
<!-- MariaDBConnect -->
<g id="node10" class="node">
<title>MariaDBConnect</title>
<polygon fill="none" stroke="black" points="672.25,-108 559.5,-108 559.5,-72 672.25,-72 672.25,-108"/>
<text text-anchor="middle" x="615.88" y="-84.95" font-family="Times,serif" font-size="14.00">MariaDBConnect</text>
</g>
<!-- Application&#45;&gt;MariaDBConnect -->
<g id="edge6" class="edge">
<title>Application&#45;&gt;MariaDBConnect</title>
<path fill="none" stroke="black" d="M615.88,-36.3C615.88,-44.1 615.88,-53.49 615.88,-62.17"/>
<polygon fill="black" stroke="black" points="615.88,-71.9 611.38,-61.9 615.88,-66.9 615.88,-61.9 615.88,-61.9 615.88,-61.9 615.88,-66.9 620.38,-61.9 615.88,-71.9 615.88,-71.9"/>
</g>
<!-- Students -->
<g id="node12" class="node">
<title>Students</title>
<polygon fill="dimgrey" stroke="black" points="1052.12,-180 989.62,-180 989.62,-144 1052.12,-144 1052.12,-180"/>
<text text-anchor="start" x="997.62" y="-156.95" font-family="Times,serif" font-size="14.00" fill="WHITE">Students</text>
</g>
<!-- Application&#45;&gt;Students -->
<g id="edge7" class="edge">
<title>Application&#45;&gt;Students</title>
<path fill="none" stroke="black" d="M655.91,-21.48C752.19,-27.83 990.53,-46.03 1014.88,-72 1030.12,-88.26 1030.12,-114.37 1027.2,-134.11"/>
<polygon fill="black" stroke="black" points="1025.47,-143.77 1022.8,-133.13 1026.35,-138.84 1027.23,-133.92 1027.23,-133.92 1027.23,-133.92 1026.35,-138.84 1031.66,-134.72 1025.47,-143.77 1025.47,-143.77"/>
</g>
<!-- Course -->
<g id="node2" class="node">
<title>Course</title>
<polygon fill="dimgrey" stroke="black" points="135,-252 80.75,-252 80.75,-216 135,-216 135,-252"/>
<text text-anchor="start" x="88.75" y="-228.95" font-family="Times,serif" font-size="14.00" fill="WHITE">Course</text>
</g>
<!-- Courses&#45;&gt;Course -->
<g id="edge8" class="edge">
<title>Courses&#45;&gt;Course</title>
<path fill="none" stroke="black" d="M170.36,-180.3C159.98,-189.05 147.23,-199.81 135.96,-209.31"/>
<polygon fill="black" stroke="black" points="128.44,-215.65 133.19,-205.77 132.27,-212.43 136.09,-209.21 136.09,-209.21 136.09,-209.21 132.27,-212.43 138.99,-212.65 128.44,-215.65 128.44,-215.65"/>
</g>
<!-- Utilities -->
<g id="node13" class="node">
<title>Utilities</title>
<polygon fill="none" stroke="black" points="730.62,-252 671.12,-252 671.12,-216 730.62,-216 730.62,-252"/>
<text text-anchor="middle" x="700.88" y="-228.95" font-family="Times,serif" font-size="14.00">Utilities</text>
</g>
<!-- Courses&#45;&gt;Utilities -->
<g id="edge9" class="edge">
<title>Courses&#45;&gt;Utilities</title>
<path fill="none" stroke="black" d="M220.88,-173.55C228.62,-175.97 236.99,-178.32 244.88,-180 396.61,-212.4 581.27,-226.17 661.03,-230.91"/>
<polygon fill="black" stroke="black" points="670.68,-231.47 660.43,-235.38 665.69,-231.18 660.69,-230.89 660.69,-230.89 660.69,-230.89 665.69,-231.18 660.96,-226.4 670.68,-231.47 670.68,-231.47"/>
</g>
<!-- Enrollment -->
<g id="node4" class="node">
<title>Enrollment</title>
<polygon fill="dimgrey" stroke="black" points="847.62,-252 770.12,-252 770.12,-216 847.62,-216 847.62,-252"/>
<text text-anchor="start" x="778.12" y="-228.95" font-family="Times,serif" font-size="14.00" fill="WHITE">Enrollment</text>
</g>
<!-- EnrollmentHelper&#45;&gt;Enrollments -->
<g id="edge10" class="edge">
<title>EnrollmentHelper&#45;&gt;Enrollments</title>
<path fill="none" stroke="black" d="M891.32,-107.86C851.6,-119.49 799.24,-134.83 760.98,-146.03"/>
<polygon fill="black" stroke="black" points="751.58,-148.79 759.91,-141.66 756.38,-147.38 761.18,-145.97 761.18,-145.97 761.18,-145.97 756.38,-147.38 762.44,-150.29 751.58,-148.79 751.58,-148.79"/>
</g>
<!-- EnrollmentHelper&#45;&gt;Students -->
<g id="edge11" class="edge">
<title>EnrollmentHelper&#45;&gt;Students</title>
<path fill="none" stroke="black" d="M966.67,-108.3C975.5,-116.89 986.31,-127.39 995.94,-136.76"/>
<polygon fill="black" stroke="black" points="1003.03,-143.65 992.73,-139.91 999.45,-140.17 995.86,-136.68 995.86,-136.68 995.86,-136.68 999.45,-140.17 999,-133.46 1003.03,-143.65 1003.03,-143.65"/>
</g>
<!-- Enrollments&#45;&gt;Enrollment -->
<g id="edge12" class="edge">
<title>Enrollments&#45;&gt;Enrollment</title>
<path fill="none" stroke="black" d="M734.6,-180.48C747.22,-189.4 762.73,-200.37 776.3,-209.97"/>
<polygon fill="black" stroke="black" points="784.46,-215.74 773.7,-213.64 780.38,-212.85 776.3,-209.97 776.3,-209.97 776.3,-209.97 780.38,-212.85 778.9,-206.29 784.46,-215.74 784.46,-215.74"/>
</g>
<!-- Enrollments&#45;&gt;Utilities -->
<g id="edge13" class="edge">
<title>Enrollments&#45;&gt;Utilities</title>
<path fill="none" stroke="black" d="M707.65,-180.3C706.65,-188.1 705.44,-197.49 704.32,-206.17"/>
<polygon fill="black" stroke="black" points="703.07,-215.9 699.89,-205.4 703.71,-210.94 704.35,-205.98 704.35,-205.98 704.35,-205.98 703.71,-210.94 708.81,-206.55 703.07,-215.9 703.07,-215.9"/>
</g>
<!-- Grade -->
<g id="node7" class="node">
<title>Grade</title>
<polygon fill="dimgrey" stroke="black" points="382.88,-252 328.88,-252 328.88,-216 382.88,-216 382.88,-252"/>
<text text-anchor="start" x="339.38" y="-228.95" font-family="Times,serif" font-size="14.00" fill="WHITE">Grade</text>
</g>
<!-- Grades&#45;&gt;Grade -->
<g id="edge14" class="edge">
<title>Grades&#45;&gt;Grade</title>
<path fill="none" stroke="black" d="M400.29,-180.3C393.15,-188.78 384.42,-199.14 376.59,-208.42"/>
<polygon fill="black" stroke="black" points="370.29,-215.9 373.3,-205.35 373.51,-212.07 376.74,-208.25 376.74,-208.25 376.74,-208.25 373.51,-212.07 380.18,-211.15 370.29,-215.9 370.29,-215.9"/>
</g>
<!-- Grades&#45;&gt;Utilities -->
<g id="edge15" class="edge">
<title>Grades&#45;&gt;Utilities</title>
<path fill="none" stroke="black" d="M442.3,-169.71C493.18,-182.17 602.38,-208.89 661.28,-223.31"/>
<polygon fill="black" stroke="black" points="670.97,-225.68 660.19,-227.68 666.12,-224.49 661.26,-223.3 661.26,-223.3 661.26,-223.3 666.12,-224.49 662.33,-218.93 670.97,-225.68 670.97,-225.68"/>
</g>
<!-- GradingHelper&#45;&gt;Courses -->
<g id="edge16" class="edge">
<title>GradingHelper&#45;&gt;Courses</title>
<path fill="none" stroke="black" d="M367.92,-106C333.49,-116.57 286.34,-131.08 244.88,-144 240.13,-145.48 235.15,-147.04 230.22,-148.58"/>
<polygon fill="black" stroke="black" points="220.86,-151.53 229.05,-144.23 225.63,-150.03 230.4,-148.53 230.4,-148.53 230.4,-148.53 225.63,-150.03 231.75,-152.82 220.86,-151.53 220.86,-151.53"/>
</g>
<!-- GradingHelper&#45;&gt;Enrollments -->
<g id="edge17" class="edge">
<title>GradingHelper&#45;&gt;Enrollments</title>
<path fill="none" stroke="black" d="M465.59,-102.64C519.01,-115.4 604.36,-135.79 658.73,-148.78"/>
<polygon fill="black" stroke="black" points="668.17,-151.04 657.4,-153.09 663.31,-149.87 658.44,-148.71 658.44,-148.71 658.44,-148.71 663.31,-149.87 659.49,-144.34 668.17,-151.04 668.17,-151.04"/>
</g>
<!-- GradingHelper&#45;&gt;Grades -->
<g id="edge18" class="edge">
<title>GradingHelper&#45;&gt;Grades</title>
<path fill="none" stroke="black" d="M416.38,-108.3C416.16,-116.1 415.89,-125.49 415.64,-134.17"/>
<polygon fill="black" stroke="black" points="415.36,-143.9 411.15,-133.77 415.51,-138.9 415.65,-133.9 415.65,-133.9 415.65,-133.9 415.51,-138.9 420.15,-134.03 415.36,-143.9 415.36,-143.9"/>
</g>
<!-- Student -->
<g id="node11" class="node">
<title>Student</title>
<polygon fill="dimgrey" stroke="black" points="1140.5,-252 1083.25,-252 1083.25,-216 1140.5,-216 1140.5,-252"/>
<text text-anchor="start" x="1091.25" y="-228.95" font-family="Times,serif" font-size="14.00" fill="WHITE">Student</text>
</g>
<!-- Students&#45;&gt;Student -->
<g id="edge19" class="edge">
<title>Students&#45;&gt;Student</title>
<path fill="none" stroke="black" d="M1043.37,-180.3C1054.85,-189.14 1068.99,-200.01 1081.44,-209.59"/>
<polygon fill="black" stroke="black" points="1089.32,-215.65 1078.65,-213.12 1085.36,-212.6 1081.4,-209.56 1081.4,-209.56 1081.4,-209.56 1085.36,-212.6 1084.14,-205.99 1089.32,-215.65 1089.32,-215.65"/>
</g>
<!-- Students&#45;&gt;Utilities -->
<g id="edge20" class="edge">
<title>Students&#45;&gt;Utilities</title>
<path fill="none" stroke="black" d="M989.14,-170.93C976.9,-173.91 962.76,-177.23 949.88,-180 866.27,-197.96 844.09,-196.33 760.88,-216 754.14,-217.59 747.02,-219.45 740.14,-221.34"/>
<polygon fill="black" stroke="black" points="730.96,-223.92 739.37,-216.88 735.77,-222.57 740.58,-221.22 740.58,-221.22 740.58,-221.22 735.77,-222.57 741.8,-225.55 730.96,-223.92 730.96,-223.92"/>
</g>
<!-- test_Course -->
<g id="node14" class="node">
<title>test_Course</title>
<polygon fill="blueviolet" stroke="black" points="79.75,-180 0,-180 0,-144 79.75,-144 79.75,-180"/>
<text text-anchor="start" x="8" y="-156.95" font-family="Times,serif" font-size="14.00" fill="WHITE">test_Course</text>
</g>
<!-- test_Course&#45;&gt;Course -->
<g id="edge21" class="edge">
<title>test_Course&#45;&gt;Course</title>
<path fill="none" stroke="black" d="M56.68,-180.3C65.08,-188.95 75.38,-199.55 84.53,-208.97"/>
<polygon fill="black" stroke="black" points="91.26,-215.9 81.06,-211.86 87.78,-212.31 84.29,-208.72 84.29,-208.72 84.29,-208.72 87.78,-212.31 87.52,-205.59 91.26,-215.9 91.26,-215.9"/>
</g>
<!-- test_Courses -->
<g id="node15" class="node">
<title>test_Courses</title>
<polygon fill="blueviolet" stroke="black" points="137.38,-108 52.38,-108 52.38,-72 137.38,-72 137.38,-108"/>
<text text-anchor="start" x="60.38" y="-84.95" font-family="Times,serif" font-size="14.00" fill="WHITE">test_Courses</text>
</g>
<!-- test_Courses&#45;&gt;Course -->
<g id="edge22" class="edge">
<title>test_Courses&#45;&gt;Course</title>
<path fill="none" stroke="black" d="M96.47,-108.41C98.7,-132.82 102.79,-177.42 105.41,-206.11"/>
<polygon fill="black" stroke="black" points="106.31,-215.89 100.92,-206.34 105.85,-210.91 105.4,-205.93 105.4,-205.93 105.4,-205.93 105.85,-210.91 109.88,-205.52 106.31,-215.89 106.31,-215.89"/>
</g>
<!-- test_Courses&#45;&gt;Courses -->
<g id="edge23" class="edge">
<title>test_Courses&#45;&gt;Courses</title>
<path fill="none" stroke="black" d="M118.61,-108.3C130.84,-117.22 145.92,-128.22 159.14,-137.86"/>
<polygon fill="black" stroke="black" points="167.08,-143.65 156.35,-141.4 163.04,-140.71 159,-137.76 159,-137.76 159,-137.76 163.04,-140.71 161.66,-134.13 167.08,-143.65 167.08,-143.65"/>
</g>
<!-- test_Enrollment -->
<g id="node16" class="node">
<title>test_Enrollment</title>
<polygon fill="blueviolet" stroke="black" points="940.38,-180 837.38,-180 837.38,-144 940.38,-144 940.38,-180"/>
<text text-anchor="start" x="845.38" y="-156.95" font-family="Times,serif" font-size="14.00" fill="WHITE">test_Enrollment</text>
</g>
<!-- test_Enrollment&#45;&gt;Enrollment -->
<g id="edge24" class="edge">
<title>test_Enrollment&#45;&gt;Enrollment</title>
<path fill="none" stroke="black" d="M869.1,-180.3C859.1,-189.05 846.81,-199.81 835.95,-209.31"/>
<polygon fill="black" stroke="black" points="828.7,-215.65 833.26,-205.68 832.46,-212.36 836.23,-209.07 836.23,-209.07 836.23,-209.07 832.46,-212.36 839.19,-212.45 828.7,-215.65 828.7,-215.65"/>
</g>
<!-- test_EnrollmentHelper -->
<g id="node17" class="node">
<title>test_EnrollmentHelper</title>
<polygon fill="blueviolet" stroke="black" points="1018.75,-36 879,-36 879,0 1018.75,0 1018.75,-36"/>
<text text-anchor="start" x="887" y="-12.95" font-family="Times,serif" font-size="14.00" fill="WHITE">test_EnrollmentHelper</text>
</g>
<!-- test_EnrollmentHelper&#45;&gt;EnrollmentHelper -->
<g id="edge25" class="edge">
<title>test_EnrollmentHelper&#45;&gt;EnrollmentHelper</title>
<path fill="none" stroke="black" d="M948.88,-36.3C948.88,-44.1 948.88,-53.49 948.88,-62.17"/>
<polygon fill="black" stroke="black" points="948.88,-71.9 944.38,-61.9 948.88,-66.9 948.88,-61.9 948.88,-61.9 948.88,-61.9 948.88,-66.9 953.38,-61.9 948.88,-71.9 948.88,-71.9"/>
</g>
<!-- test_EnrollmentHelper&#45;&gt;Enrollments -->
<g id="edge26" class="edge">
<title>test_EnrollmentHelper&#45;&gt;Enrollments</title>
<path fill="none" stroke="black" d="M878.75,-24.7C839.37,-31.02 791.37,-44.27 756.88,-72 737.19,-87.83 724.75,-114.16 717.65,-134.09"/>
<polygon fill="black" stroke="black" points="714.5,-143.56 713.38,-132.65 716.07,-138.82 717.65,-134.07 717.65,-134.07 717.65,-134.07 716.07,-138.82 721.92,-135.49 714.5,-143.56 714.5,-143.56"/>
</g>
<!-- test_EnrollmentHelper&#45;&gt;Students -->
<g id="edge27" class="edge">
<title>test_EnrollmentHelper&#45;&gt;Students</title>
<path fill="none" stroke="black" d="M1005.28,-36.41C1021.93,-44.48 1038.26,-55.94 1047.88,-72 1059.62,-91.61 1050.12,-116.75 1039.27,-135.31"/>
<polygon fill="black" stroke="black" points="1034.1,-143.58 1035.59,-132.72 1036.75,-139.34 1039.4,-135.1 1039.4,-135.1 1039.4,-135.1 1036.75,-139.34 1043.22,-137.49 1034.1,-143.58 1034.1,-143.58"/>
</g>
<!-- test_Enrollments -->
<g id="node18" class="node">
<title>test_Enrollments</title>
<polygon fill="blueviolet" stroke="black" points="874,-108 765.75,-108 765.75,-72 874,-72 874,-108"/>
<text text-anchor="start" x="773.75" y="-84.95" font-family="Times,serif" font-size="14.00" fill="WHITE">test_Enrollments</text>
</g>
<!-- test_Enrollments&#45;&gt;Enrollment -->
<g id="edge28" class="edge">
<title>test_Enrollments&#45;&gt;Enrollment</title>
<path fill="none" stroke="black" d="M818.53,-108.41C816.64,-132.82 813.18,-177.42 810.96,-206.11"/>
<polygon fill="black" stroke="black" points="810.2,-215.89 806.49,-205.57 810.59,-210.9 810.97,-205.92 810.97,-205.92 810.97,-205.92 810.59,-210.9 815.46,-206.27 810.2,-215.89 810.2,-215.89"/>
</g>
<!-- test_Enrollments&#45;&gt;Enrollments -->
<g id="edge29" class="edge">
<title>test_Enrollments&#45;&gt;Enrollments</title>
<path fill="none" stroke="black" d="M792.4,-108.48C778.12,-117.57 760.5,-128.78 745.21,-138.51"/>
<polygon fill="black" stroke="black" points="737,-143.74 743.02,-134.57 741.22,-141.06 745.44,-138.37 745.44,-138.37 745.44,-138.37 741.22,-141.06 747.85,-142.17 737,-143.74 737,-143.74"/>
</g>
<!-- test_Grade -->
<g id="node19" class="node">
<title>test_Grade</title>
<polygon fill="blueviolet" stroke="black" points="328.12,-180 253.62,-180 253.62,-144 328.12,-144 328.12,-180"/>
<text text-anchor="start" x="261.62" y="-156.95" font-family="Times,serif" font-size="14.00" fill="WHITE">test_Grade</text>
</g>
<!-- test_Grade&#45;&gt;Grade -->
<g id="edge30" class="edge">
<title>test_Grade&#45;&gt;Grade</title>
<path fill="none" stroke="black" d="M306.94,-180.3C314.89,-188.86 324.62,-199.34 333.31,-208.7"/>
<polygon fill="black" stroke="black" points="339.99,-215.9 329.89,-211.63 336.59,-212.23 333.19,-208.57 333.19,-208.57 333.19,-208.57 336.59,-212.23 336.49,-205.51 339.99,-215.9 339.99,-215.9"/>
</g>
<!-- test_Grades -->
<g id="node20" class="node">
<title>test_Grades</title>
<polygon fill="blueviolet" stroke="black" points="311.75,-108 232,-108 232,-72 311.75,-72 311.75,-108"/>
<text text-anchor="start" x="240" y="-84.95" font-family="Times,serif" font-size="14.00" fill="WHITE">test_Grades</text>
</g>
<!-- test_Grades&#45;&gt;Grade -->
<g id="edge31" class="edge">
<title>test_Grades&#45;&gt;Grade</title>
<path fill="none" stroke="black" d="M301.03,-108.28C313.9,-117.35 328.07,-129.59 336.88,-144 348.29,-162.68 352.92,-187.22 354.76,-205.79"/>
<polygon fill="black" stroke="black" points="355.53,-215.69 350.26,-206.07 355.14,-210.71 354.75,-205.72 354.75,-205.72 354.75,-205.72 355.14,-210.71 359.24,-205.37 355.53,-215.69 355.53,-215.69"/>
</g>
<!-- test_Grades&#45;&gt;Grades -->
<g id="edge32" class="edge">
<title>test_Grades&#45;&gt;Grades</title>
<path fill="none" stroke="black" d="M307.59,-108.48C329.31,-119.11 356.96,-132.65 378.75,-143.31"/>
<polygon fill="black" stroke="black" points="387.69,-147.69 376.73,-147.34 383.2,-145.49 378.71,-143.3 378.71,-143.3 378.71,-143.3 383.2,-145.49 380.69,-139.25 387.69,-147.69 387.69,-147.69"/>
</g>
<!-- test_GradingHelper -->
<g id="node21" class="node">
<title>test_GradingHelper</title>
<polygon fill="blueviolet" stroke="black" points="440.12,-36 317.62,-36 317.62,0 440.12,0 440.12,-36"/>
<text text-anchor="start" x="325.62" y="-12.95" font-family="Times,serif" font-size="14.00" fill="WHITE">test_GradingHelper</text>
</g>
<!-- test_GradingHelper&#45;&gt;Courses -->
<g id="edge33" class="edge">
<title>test_GradingHelper&#45;&gt;Courses</title>
<path fill="none" stroke="black" d="M317.42,-28.09C268.38,-36.74 205.42,-51.5 189.88,-72 176.66,-89.43 178.37,-114.8 182.53,-133.99"/>
<polygon fill="black" stroke="black" points="184.94,-143.66 178.16,-135.05 183.73,-138.81 182.52,-133.96 182.52,-133.96 182.52,-133.96 183.73,-138.81 186.89,-132.87 184.94,-143.66 184.94,-143.66"/>
</g>
<!-- test_GradingHelper&#45;&gt;Enrollments -->
<g id="edge34" class="edge">
<title>test_GradingHelper&#45;&gt;Enrollments</title>
<path fill="none" stroke="black" d="M411.14,-36.46C452.95,-58.95 523.7,-96.52 550.88,-108 586.1,-122.88 627.05,-136.45 658.58,-146.13"/>
<polygon fill="black" stroke="black" points="668.04,-149.01 657.16,-150.4 663.26,-147.55 658.47,-146.1 658.47,-146.1 658.47,-146.1 663.26,-147.55 659.78,-141.79 668.04,-149.01 668.04,-149.01"/>
</g>
<!-- test_GradingHelper&#45;&gt;Grades -->
<g id="edge35" class="edge">
<title>test_GradingHelper&#45;&gt;Grades</title>
<path fill="none" stroke="black" d="M369.19,-36.32C360.26,-54.7 349.8,-84.3 359.88,-108 364.62,-119.15 372.98,-129.1 381.78,-137.28"/>
<polygon fill="black" stroke="black" points="389.21,-143.72 378.71,-140.57 385.43,-140.44 381.65,-137.17 381.65,-137.17 381.65,-137.17 385.43,-140.44 384.6,-133.77 389.21,-143.72 389.21,-143.72"/>
</g>
<!-- test_GradingHelper&#45;&gt;GradingHelper -->
<g id="edge36" class="edge">
<title>test_GradingHelper&#45;&gt;GradingHelper</title>
<path fill="none" stroke="black" d="M388.27,-36.3C392.69,-44.44 398.04,-54.31 402.92,-63.3"/>
<polygon fill="black" stroke="black" points="407.59,-71.9 398.86,-65.25 405.2,-67.5 402.82,-63.11 402.82,-63.11 402.82,-63.11 405.2,-67.5 406.77,-60.96 407.59,-71.9 407.59,-71.9"/>
</g>
<!-- test_Student -->
<g id="node22" class="node">
<title>test_Student</title>
<polygon fill="blueviolet" stroke="black" points="1153.25,-180 1070.5,-180 1070.5,-144 1153.25,-144 1153.25,-180"/>
<text text-anchor="start" x="1078.5" y="-156.95" font-family="Times,serif" font-size="14.00" fill="WHITE">test_Student</text>
</g>
<!-- test_Student&#45;&gt;Student -->
<g id="edge37" class="edge">
<title>test_Student&#45;&gt;Student</title>
<path fill="none" stroke="black" d="M1111.88,-180.3C1111.88,-188.1 1111.88,-197.49 1111.88,-206.17"/>
<polygon fill="black" stroke="black" points="1111.88,-215.9 1107.38,-205.9 1111.88,-210.9 1111.88,-205.9 1111.88,-205.9 1111.88,-205.9 1111.88,-210.9 1116.38,-205.9 1111.88,-215.9 1111.88,-215.9"/>
</g>
<!-- test_Students -->
<g id="node23" class="node">
<title>test_Students</title>
<polygon fill="blueviolet" stroke="black" points="1212.88,-108 1124.88,-108 1124.88,-72 1212.88,-72 1212.88,-108"/>
<text text-anchor="start" x="1132.88" y="-84.95" font-family="Times,serif" font-size="14.00" fill="WHITE">test_Students</text>
</g>
<!-- test_Students&#45;&gt;Student -->
<g id="edge38" class="edge">
<title>test_Students&#45;&gt;Student</title>
<path fill="none" stroke="black" d="M1170.8,-108.22C1172.15,-126.77 1172.18,-156.76 1161.88,-180 1157.11,-190.75 1149.21,-200.68 1141.08,-208.97"/>
<polygon fill="black" stroke="black" points="1134.26,-215.53 1138.35,-205.36 1137.87,-212.07 1141.47,-208.6 1141.47,-208.6 1141.47,-208.6 1137.87,-212.07 1144.59,-211.84 1134.26,-215.53 1134.26,-215.53"/>
</g>
<!-- test_Students&#45;&gt;Students -->
<g id="edge39" class="edge">
<title>test_Students&#45;&gt;Students</title>
<path fill="none" stroke="black" d="M1131.91,-108.48C1110.39,-118.66 1083.24,-131.51 1061.17,-141.94"/>
<polygon fill="black" stroke="black" points="1052.37,-146.11 1059.48,-137.76 1056.89,-143.97 1061.41,-141.83 1061.41,-141.83 1061.41,-141.83 1056.89,-143.97 1063.33,-145.9 1052.37,-146.11 1052.37,-146.11"/>
</g>
</g>
</svg>
